<?xml version="1.0" standalone="no"?>
<!DOCTYPE svg PUBLIC "-//W3C//DTD SVG 20010904//EN"
 "http://www.w3.org/TR/2001/REC-SVG-20010904/DTD/svg10.dtd">
<svg version="1.0" xmlns="http://www.w3.org/2000/svg"
 width="300.000000pt" height="300.000000pt" viewBox="0 0 300.000000 300.000000"
 preserveAspectRatio="xMidYMid meet">
<metadata>
Created by potrace 1.11, written by Peter Selinger 2001-2013
</metadata>
<g transform="translate(0.000000,300.000000) scale(0.100000,-0.100000)"
fill="#000000" stroke="none">
<path d="M905 2627 c-26 -14 -23 -26 85 -262 119 -258 280 -622 282 -634 2
-10 -5 -16 -17 -17 -19 -1 -117 -12 -172 -19 -16 -2 -57 -6 -93 -10 -36 -3
-76 -8 -90 -11 -14 -2 -47 -7 -75 -9 -27 -3 -64 -7 -81 -10 -25 -4 -33 -1 -42
17 -6 13 -37 70 -69 128 -32 58 -76 138 -98 178 -21 40 -46 74 -55 77 -70 21
-123 14 -137 -18 -7 -17 -10 -902 -4 -1079 1 -19 8 -28 29 -35 35 -12 90 -7
116 11 12 7 68 99 125 204 l104 191 41 -4 c22 -3 64 -8 91 -11 28 -3 61 -7 75
-9 14 -2 52 -6 85 -10 33 -3 74 -8 90 -10 17 -2 62 -7 100 -10 39 -4 73 -10
77 -14 4 -3 -2 -24 -12 -46 -10 -22 -50 -112 -90 -200 -40 -88 -87 -193 -106
-233 -19 -40 -34 -74 -34 -77 0 -4 -25 -60 -102 -225 -17 -36 -31 -78 -32 -95
-1 -29 0 -30 54 -35 30 -3 80 -2 110 2 51 6 59 11 109 65 83 90 234 254 256
279 84 92 193 211 205 224 8 9 35 39 60 66 202 222 244 263 274 270 17 4 159
8 316 9 337 3 410 16 502 87 156 121 86 281 -152 349 -31 9 -140 13 -354 15
-342 3 -326 0 -396 74 -19 21 -75 82 -125 136 -86 95 -173 190 -205 224 -29
31 -215 233 -225 244 -137 152 -204 220 -225 228 -31 13 -175 17 -195 5z"/>
</g>
</svg>
